<?xml version="1.0" standalone="no"?>
<!DOCTYPE svg PUBLIC "-//W3C//DTD SVG 20010904//EN"
 "http://www.w3.org/TR/2001/REC-SVG-20010904/DTD/svg10.dtd">
<svg version="1.0" xmlns="http://www.w3.org/2000/svg"
 width="512.000000pt" height="512.000000pt" viewBox="0 0 512.000000 512.000000"
 preserveAspectRatio="xMidYMid meet">
<metadata>
Created by potrace 1.11, written by Peter Selinger 2001-2013
</metadata>
<g transform="translate(0.000000,512.000000) scale(0.100000,-0.100000)"
fill="#000000" stroke="none">
<path d="M3873 4115 c-106 -38 -181 -106 -232 -210 -59 -120 -60 -135 -61
-911 0 -671 1 -706 17 -699 10 4 45 12 78 19 l60 13 3 186 2 187 270 0 270 0
2 -240 3 -241 75 -34 75 -34 2 112 c2 62 4 420 6 797 2 548 6 692 16 722 8 21
19 34 24 31 6 -3 7 -1 3 6 -9 14 14 52 55 92 113 111 288 81 366 -61 31 -56
43 -100 49 -175 4 -43 13 -80 23 -95 24 -33 78 -39 112 -11 22 18 24 26 23
103 -3 193 -97 354 -253 431 -60 29 -74 32 -161 32 -87 0 -101 -3 -160 -32
-101 -51 -179 -137 -223 -250 -27 -68 -29 -89 -34 -293 -3 -107 -6 -196 -7
-197 -2 -2 -211 -4 -400 -4 l-138 1 4 193 c4 164 7 200 25 244 45 114 123 176
223 177 30 1 67 -2 82 -7 25 -7 29 -3 62 60 20 37 33 70 28 75 -15 15 -129 38
-179 37 -28 -1 -78 -12 -110 -24z m407 -1085 l0 -170 -270 0 -270 0 0 169 0
169 270 1 270 0 0 -169z"/>
<path d="M1245 3235 c-49 -7 -119 -16 -155 -20 -36 -4 -67 -8 -70 -10 -3 -1
-41 -6 -85 -10 -44 -4 -82 -8 -85 -10 -3 -1 -32 -6 -65 -9 -135 -14 -178 -33
-209 -95 -37 -70 -15 -157 49 -200 40 -27 88 -32 210 -21 39 4 78 3 89 -3 13
-6 16 -6 12 2 -5 7 11 11 51 12 95 2 174 7 235 13 l58 6 62 -86 c35 -47 63
-92 63 -99 0 -8 -49 -39 -110 -70 -339 -175 -764 -391 -793 -404 -17 -8 -32
-18 -32 -21 0 -3 37 -20 82 -39 l81 -35 51 18 c28 10 76 29 106 43 171 77 225
96 325 119 17 3 84 8 150 10 166 4 236 -13 482 -117 54 -23 103 -45 108 -49
30 -23 74 -20 151 10 43 17 84 37 91 43 16 16 -35 321 -64 388 -13 28 -58 84
-124 150 -93 94 -264 276 -312 333 -59 69 -136 141 -164 152 -38 16 -68 16
-188 -1z"/>
<path d="M2393 3115 c-300 -83 -359 -478 -97 -648 113 -73 278 -71 391 6 123
85 185 243 147 379 -8 29 -16 58 -17 63 -5 20 -67 103 -96 128 -87 73 -220
102 -328 72z"/>
<path d="M2505 2089 c-89 -9 -155 -30 -314 -99 -183 -78 -217 -89 -288 -85
-56 3 -74 10 -325 116 -134 56 -193 69 -313 66 -121 -3 -177 -18 -356 -97
-162 -72 -217 -88 -284 -85 -33 2 -69 6 -80 9 -11 2 -40 9 -65 15 -66 15 -323
101 -338 113 -6 6 -12 8 -12 5 0 -3 -27 5 -60 19 -33 13 -62 24 -65 24 -3 0
-5 -72 -5 -160 l0 -160 25 0 c14 0 26 0 28 1 5 2 134 -49 192 -76 101 -46 117
-53 200 -80 182 -60 333 -38 609 89 197 91 257 88 494 -18 182 -82 284 -108
397 -101 118 7 150 17 375 113 151 65 157 67 240 67 88 0 125 -12 315 -100 97
-45 209 -76 281 -79 40 -2 76 -6 81 -9 6 -4 13 -3 17 0 4 4 12 8 19 9 86 15
176 45 297 99 234 105 278 108 445 39 61 -25 147 -60 192 -79 205 -84 355 -82
562 5 36 16 103 44 149 63 45 19 82 33 82 30 0 -3 6 0 14 6 7 6 34 14 60 17
l46 7 0 160 0 159 -57 -5 c-65 -6 -90 -11 -142 -28 -34 -11 -193 -76 -256
-105 -168 -77 -221 -71 -503 57 -53 24 -177 66 -217 73 -98 19 -268 -3 -368
-48 -184 -81 -255 -110 -297 -121 -60 -16 -149 -11 -190 10 -17 9 -30 13 -30
11 0 -4 -46 16 -185 79 -121 56 -266 85 -370 74z"/>
<path d="M1201 1468 c-58 -39 -76 -72 -76 -137 0 -48 5 -64 28 -95 34 -43 59
-55 144 -66 35 -4 110 -28 175 -55 207 -87 283 -113 351 -125 64 -12 165 -9
230 5 36 7 166 56 237 88 30 13 60 26 65 28 6 2 38 15 72 29 92 39 175 39 271
-1 12 -5 32 -13 45 -19 12 -5 63 -27 112 -48 165 -71 220 -86 330 -86 148 -1
202 13 396 102 203 95 285 102 424 41 22 -9 72 -32 110 -49 281 -127 425 -129
707 -9 171 73 243 99 275 99 l23 0 0 161 0 162 -62 -7 c-79 -7 -96 -10 -104
-19 -4 -4 -14 -7 -22 -7 -8 0 -95 -34 -195 -76 -217 -92 -256 -98 -367 -61
-41 14 -113 43 -160 65 -305 140 -450 137 -781 -16 -102 -48 -179 -72 -229
-72 -44 0 -123 23 -199 57 -31 14 -69 31 -86 38 -16 7 -46 20 -65 28 -19 8
-60 23 -90 32 -30 9 -67 21 -82 25 -15 5 -68 8 -118 8 -120 -1 -201 -24 -390
-108 -117 -52 -203 -80 -251 -80 -39 0 -129 26 -200 58 -233 104 -287 121
-409 129 -67 4 -79 2 -109 -19z"/>
</g>
</svg>
